# xmcd
#
# Track frame offsets: 
#        150
#        18199
#        33457
#
# Disc length: 711 seconds
#
# Revision: 4
# Processed by: cddbd v1.5.1PL0 Copyright (c) Steve Scherf et al.
# Submitted via: ExactAudioCopy v0.95a5
#
DISCID=1802c503
DTITLE=周杰伦 - 周杰伦范特西EP
DYEAR=1900
DGENRE=
TTITLE0=蜗牛
TTITLE1=你比从前快乐
TTITLE2=世界末日
EXTD=
EXTT0=
EXTT1=
EXTT2=
PLAYORDER=
